<svg width="182" height="159" viewBox="0 0 182 159" fill="none" xmlns="http://www.w3.org/2000/svg">
<path d="M63.486 19.2722L60.6547 20V60L95.6546 80L130.655 60V20L127.823 19.2722H63.486Z" fill="#00B3FE"/>
<path d="M95.6548 19.2722V80L130.655 60V20L127.823 19.2722H95.6548Z" fill="#0274F9"/>
<path d="M121.656 19.9999L95.6546 39.9923L60.6547 20.0015V19.9999L95.6546 -6.10352e-05L121.656 19.9999Z" fill="#01F5FF"/>
<path d="M130.655 19.9999V20.0015L95.6548 39.9923V-6.10352e-05L130.655 19.9999Z" fill="#00B3FE"/>
<path d="M181.675 101.426C177.47 94.6506 168.553 92.2985 161.34 96.0549L160.18 96.6517C156.374 92.0528 149.668 90.2272 144.593 92.7198C144.593 92.7198 144.557 92.7198 144.557 92.7549L142.128 94.0187C136.691 89.4549 128.788 88.6826 122.517 92.1932L110.193 98.6878H93.8086C93.8086 98.6878 93.8086 98.6878 93.7723 98.6878C90.2562 98.6878 86.6676 97.8804 83.4778 96.4059L81.2304 95.3527C68.2534 89.2794 52.9928 90.7187 41.4658 99.1091C41.4295 99.1442 41.357 99.1793 41.3208 99.2144L35.9198 103.884C33.9623 105.569 13.5544 115.96 1.19372 122.104C0.64999 122.384 0.251256 122.876 0.0700136 123.438C-0.0749804 123.999 -0.00248328 124.631 0.360002 125.123L22.5803 158.052C22.979 158.684 23.704 159 24.3927 159C24.7552 159 25.1177 158.895 25.4802 158.719L58.1401 140.639C60.3512 139.446 62.9611 139.095 65.426 139.692C65.4623 139.692 65.4985 139.727 65.571 139.727L98.2672 145.554C107.039 147.099 116.246 145.835 124.257 142.009C124.366 141.973 124.439 141.903 124.511 141.868L181.059 104.27C182.001 103.638 182.291 102.374 181.675 101.426ZM146.586 96.4761C149.595 95.0017 153.691 96.0549 156.265 98.6878L132.957 110.835C132.268 108.798 131.181 106.903 129.767 105.218L146.586 96.4761ZM124.62 95.8793L124.656 95.8442C128.861 93.4921 133.972 93.7028 137.923 96.1953L126.505 102.163C124.221 100.513 121.575 99.4251 118.784 98.9336L124.62 95.8793ZM122.191 138.287C115.086 141.658 106.858 142.781 99.0646 141.412L66.441 135.584C62.8886 134.742 59.1913 135.233 56.0014 136.953L25.1177 154.05L5.36228 124.772C13.6994 120.629 36.1735 109.36 38.8559 107.043L44.1844 102.444C54.4065 95.0368 67.8909 93.773 79.3817 99.1793L81.6291 100.232C85.3989 101.988 89.6038 102.936 93.8086 102.936H93.8448H115.594C119.001 102.936 122.264 104.129 124.837 106.306C127.266 108.377 128.861 111.186 129.405 114.275L113.31 113.573C107.619 113.327 101.856 113.573 96.201 114.345C95.0048 114.521 94.1711 115.574 94.3523 116.732C94.5336 117.891 95.621 118.698 96.8172 118.523C102.218 117.786 107.692 117.54 113.129 117.786L131.688 118.593H131.797C132.341 118.593 132.884 118.382 133.283 117.996C133.718 117.61 133.972 117.048 133.972 116.487C133.972 116.065 133.972 115.644 133.936 115.188L163.478 99.7761C168.009 97.3889 173.519 98.4421 176.818 102.023L122.191 138.287Z" fill="black"/>
</svg>
