<?xml version="1.0"?>
<svg xmlns="http://www.w3.org/2000/svg" xmlns:xlink="http://www.w3.org/1999/xlink" xmlns:svgjs="http://svgjs.com/svgjs" version="1.1" width="512" height="512" x="0" y="0" viewBox="0 0 512 512" style="enable-background:new 0 0 512 512" xml:space="preserve" class=""><g><path xmlns="http://www.w3.org/2000/svg" d="m369.3 74.7c11.6 0 21 9.4 21 21.1v29.3h-86.1v-50.5z" fill="#e2e4ed" data-original="#e2e4ed" style="" class=""/><path xmlns="http://www.w3.org/2000/svg" d="m250.7 74.5v50.6h-87.7l.1-29.8c0-11.6 9.5-21 21.1-21z" fill="#e2e4ed" data-original="#e2e4ed" style="" class=""/><path xmlns="http://www.w3.org/2000/svg" d="m375.4 125.3v113c0 11.6-9.4 21-21 21h-50.4l.1-134.1h71.3z" fill="#e04a5d" data-original="#e04a5d" style="" class=""/><path xmlns="http://www.w3.org/2000/svg" d="m250.6 125.1-.1 134.1h-51.6c-11.6 0-21-9.4-21-21v-113.1z" fill="#e04a5d" data-original="#e04a5d" style="" class=""/><path xmlns="http://www.w3.org/2000/svg" d="m250.7 74.5-.1 50.6h53.5v-50.5z" fill="#3090fc" data-original="#3090fc" style="" class=""/><path xmlns="http://www.w3.org/2000/svg" d="m250.6 125.1h53.5v134.1h-53.5z" fill="#3090fc" data-original="#3090fc" style="" class=""/><path xmlns="http://www.w3.org/2000/svg" d="m213 74.4-28.8-.1c-11.6 0-21 9.4-21.1 21l-.1 29.8h30l.1-29.8c0-11.1 8.8-20.3 19.9-20.9z" fill="#f4f8fc" data-original="#f4f8fc" style="" class=""/><path xmlns="http://www.w3.org/2000/svg" d="m207.9 238.2v-113.1h-30v113.1c0 11.6 9.4 21 21 21h30c-11.6.1-21-9.3-21-21z" fill="#ff5a5a" data-original="#ff5a5a" style="" class=""/><path xmlns="http://www.w3.org/2000/svg" d="m388.4 76.7c-5-5.1-11.9-8-19.1-8h-22.2l3-3.1c10.2-9.9 10.4-26.2.5-36.3-9.9-10.2-26.2-10.4-36.3-.5-.1.1-.3.3-.4.4l-36.6 36.4-26.8-26.9c-4.8-4.8-11.3-7.6-18.1-7.6-14.2 0-25.7 11.5-25.7 25.7 0 4 .9 8 2.7 11.5h-25.2-.1c-14.9 0-27 12.1-27 27l-.1 29.8c0 3.3 2.7 6 6 6h8.9v107.1c0 14.9 12.1 27 27 27h155.4c14.9 0 27-12.1 27-27v-107.1h8.8c3.3 0 6-2.7 6-6l.1-29.3c.1-7.2-2.7-14.1-7.8-19.1zm-66-39c5.4-5.3 14-5.3 19.4.1 5.3 5.4 5.3 14-.1 19.4l-11.2 11.4h-39.1zm-99.8 9.4c2.6-2.6 6-4 9.7-4 3.6 0 7.1 1.4 9.7 4l21.3 21.3-39-.4-1.7-1.7c-5.3-5.2-5.3-13.8 0-19.2zm22 206.2h-45.6c-8.3 0-15-6.7-15-15v-107.2h60.7zm0-134.2h-75.6v-23.8c0-8.3 6.7-15 15-15l60.5.1zm53.4 134.2h-41.5l.1-122.1h41.5zm.1-134.2h-41.5v-38.6l41.5.1zm71.3 119.1c0 8.3-6.7 15-15 15h-44.4l.1-122.1h59.3zm14.8-119.1h-74.1v-38.5l59.2.1c8.3 0 15 6.8 15 15.1z" fill="#e0ac7f" data-original="#284268" style="" class=""/><g xmlns="http://www.w3.org/2000/svg" id="XMLID_2_"><g id="XMLID_3_"><g><g><path d="m395.2 311.7.5 1-42.5 22.9c-7.9-6.9-18.2-11.1-29.5-11.1h-13.3l35.4-19.2c16-9.3 36.3-6.7 49.4 6.4z" fill="#e2b89c" data-original="#e2b89c" style="" class=""/></g><path d="m444.9 320.5c-7.4-13-25-20.4-38.3-13.6l-53.4 28.8c7.6 6.7 12.9 15.9 14.6 26.4l11-5.8z" fill="#f2c8aa" data-original="#f2c8aa" style="" class=""/><path d="m452.9 316.3-85.1 45.8c-1.7-10.5-7-19.7-14.6-26.4-7.9-6.9-18.2-11.1-29.5-11.1h-13.3-46.7c-10.8 0-21.4-2.4-31-7.1l-6.2-3c-33.7-16.3-73.6-12.4-103.5 10.1l-14.9 13.3c-8.1 7.1-97.1 52.6-97.1 52.6l61.3 93.8 90.1-51.5c7.5-4.2 16.2-5.3 24.5-3.2l90.1 16.6c23.1 4.2 46.9.8 67.9-9.6l156-107.1c-9.9-16.6-31-22.4-48-13.2z" fill="#ffd8b7" data-original="#ffd8b7" style="" class=""/></g><path d="m506.1 326.3c-11.6-19.3-36.2-26-56.1-15.3l-3.2 1.7c-10.5-13.1-29-18.3-43-11.2 0 0-.1 0-.1.1l-6.7 3.6c-15-13-36.8-15.2-54.1-5.2l-34 18.5h-45.2s0 0-.1 0c-9.7 0-19.6-2.3-28.4-6.5l-6.2-3c-35.8-17.3-77.9-13.2-109.7 10.7-.1.1-.3.2-.4.3l-14.9 13.3c-5.4 4.8-61.7 34.4-95.8 51.9-1.5.8-2.6 2.2-3.1 3.8-.4 1.6-.2 3.4.8 4.8l61.3 93.8c1.1 1.8 3.1 2.7 5 2.7 1 0 2-.3 3-.8l90.1-51.5c6.1-3.4 13.3-4.4 20.1-2.7.1 0 .2.1.4.1l90.2 16.6c24.2 4.4 49.6.8 71.7-10.1.3-.1.5-.3.7-.4l156-107.1c2.6-1.8 3.4-5.4 1.7-8.1zm-96.8-14.1c8.3-4.2 19.6-1.2 26.7 6.3l-64.3 34.6c-1.9-5.8-4.9-11.2-8.8-16zm-60.6-1.7s.1-.1.1-.1c11.6-6.7 25.7-6.1 36.6 1l-31.5 17c-6.3-4.7-13.6-7.8-21.3-9.2zm-6.7 120.8c-19.6 9.6-42.3 12.8-63.8 8.9l-90-16.6c-9.8-2.4-20-1-28.8 3.9l-85.2 48.7-54.5-83.4c23-11.8 85-43.9 92.4-50.5l14.7-13.1c28.2-21.1 65.4-24.7 97.1-9.3l6.2 3c10.4 5 22 7.7 33.6 7.7h.1 60c9.4 0 18.4 3.4 25.5 9.6 6.7 5.9 11.1 13.9 12.6 22.7l-44.4-2c-15.7-.7-31.6 0-47.2 2.2-3.3.5-5.6 3.5-5.1 6.8s3.5 5.6 6.8 5.1c14.9-2.1 30-2.8 45-2.1l51.2 2.3h.3c1.5 0 3-.6 4.1-1.7 1.2-1.1 1.9-2.7 1.9-4.3 0-1.2 0-2.4-.1-3.7l81.5-43.9c12.5-6.8 27.7-3.8 36.8 6.4z" fill="#e0ac7f" data-original="#284268" style="" class=""/></g></g></g></svg>
