<svg width="598" height="107" viewBox="0 0 598 107" fill="none" xmlns="http://www.w3.org/2000/svg">
<path d="M203.8 0.999992C199.5 1.49999 191.2 3.09999 185.2 4.49999L174.3 7.09999L157.9 5.59999C148.9 4.69999 132.8 3.49999 122.2 2.89999C65.9 -0.300008 31.6 12.4 10.3 44.3C-2.3 63.1 -3.2 78.9 7.8 91.1C14.6 98.7 18.1 100.2 35.5 102.5C72.5 107.6 85 108 111.4 104.9C127.9 103 132.3 102.9 161.5 103.6C201.1 104.6 218.6 104.4 227 103C230.6 102.5 254.4 101.6 280 101.1C305.6 100.5 332.8 99.8 340.5 99.5C348.2 99.2 381.3 99.3 414 99.9C460.5 100.7 476.1 101.3 485.5 102.6C503.9 105.3 527 104.9 552.1 101.7C563.4 100.2 575 98.3 577.9 97.4C588.4 93.9 596.7 83.1 597.7 71.3C598.6 60.9 592.6 47.1 581.5 33.7C559.8 7.49999 524.5 -2.90001 470 0.899992C442.8 2.79999 404.9 6.79999 381.2 10.4L358.9 13.7L336.2 10.4C281.9 2.39999 225.8 -1.50001 203.8 0.999992Z" fill="white"/>
</svg>
