<svg width="3142" height="464" viewBox="0 0 3142 464" fill="none" xmlns="http://www.w3.org/2000/svg">
<path d="M0 169.201L21.8 193.701C43.6 218.201 87 267.201 131 283.501C174.5 300.201 218 283.201 262 283.501C305.5 283.201 349 300.201 393 267.201C436.4 234.201 480 153.201 524 95.701C567.3 38.201 611 6.20105 655 5.90105C698.2 6.20105 742 38.201 785 54.9011C829.1 71.201 873 71.201 916 71.201C960 71.201 1004 71.201 1047 95.701C1090.9 120.201 1135 169.201 1178 185.501C1221.8 202.201 1265 185.201 1309 152.901C1352.7 120.201 1396 71.2011 1440 63.0011C1483.6 55.2011 1527 87.201 1571 128.401C1614.5 169.201 1658 218.201 1702 259.001C1745.5 300.201 1789 332.201 1833 340.701C1876.4 349.201 1920 332.201 1964 291.701C2007.3 251.201 2051 185.201 2095 201.901C2138.2 218.201 2182 316.201 2225 299.901C2269.1 283.201 2313 153.201 2356 79.401C2400 6.20105 2444 -10.7989 2487 5.90105C2530.9 22.2011 2575 71.201 2618 120.201C2661.8 169.201 2705 218.201 2749 201.901C2792.7 185.201 2836 104.201 2880 71.201C2923.6 38.201 2967 55.201 3011 95.701C3054.5 136.201 3098 202.201 3120 234.501L3141.8 267.201V463.201H3120C3098.2 463.201 3055 463.201 3011 463.201C2967.3 463.201 2924 463.201 2880 463.201C2836.4 463.201 2793 463.201 2749 463.201C2705.5 463.201 2662 463.201 2618 463.201C2574.5 463.201 2531 463.201 2487 463.201C2443.6 463.201 2400 463.201 2356 463.201C2312.7 463.201 2269 463.201 2225 463.201C2181.8 463.201 2138 463.201 2095 463.201C2050.9 463.201 2007 463.201 1964 463.201C1920 463.201 1876 463.201 1833 463.201C1789.1 463.201 1745 463.201 1702 463.201C1658.2 463.201 1615 463.201 1571 463.201C1527.3 463.201 1484 463.201 1440 463.201C1396.4 463.201 1353 463.201 1309 463.201C1265.5 463.201 1222 463.201 1178 463.201C1134.5 463.201 1091 463.201 1047 463.201C1003.6 463.201 960 463.201 916 463.201C872.7 463.201 829 463.201 785 463.201C741.8 463.201 698 463.201 655 463.201C610.9 463.201 567 463.201 524 463.201C480 463.201 436 463.201 393 463.201C349.1 463.201 305 463.201 262 463.201C218.2 463.201 175 463.201 131 463.201C87.3 463.201 44 463.201 22 463.201H0V169.201Z" fill="url(#paint0_linear)"/>
<defs>
<linearGradient id="paint0_linear" x1="0" y1="463.201" x2="0" y2="0" gradientUnits="userSpaceOnUse">
<stop stop-color="white"/>
<stop offset="1" stop-color="white" stop-opacity="0"/>
</linearGradient>
</defs>
</svg>
