<?xml version="1.0" standalone="no"?><svg xmlns="http://www.w3.org/2000/svg" viewBox="0 0 1440 320"><path fill="#0099ff" fill-opacity="1" d="M0,160L0,32L43.6,32L43.6,96L87.3,96L87.3,64L130.9,64L130.9,224L174.5,224L174.5,96L218.2,96L218.2,256L261.8,256L261.8,288L305.5,288L305.5,224L349.1,224L349.1,96L392.7,96L392.7,32L436.4,32L436.4,128L480,128L480,320L523.6,320L523.6,256L567.3,256L567.3,160L610.9,160L610.9,224L654.5,224L654.5,224L698.2,224L698.2,160L741.8,160L741.8,64L785.5,64L785.5,32L829.1,32L829.1,224L872.7,224L872.7,160L916.4,160L916.4,256L960,256L960,288L1003.6,288L1003.6,224L1047.3,224L1047.3,32L1090.9,32L1090.9,96L1134.5,96L1134.5,128L1178.2,128L1178.2,0L1221.8,0L1221.8,64L1265.5,64L1265.5,256L1309.1,256L1309.1,32L1352.7,32L1352.7,288L1396.4,288L1396.4,160L1440,160L1440,320L1396.4,320L1396.4,320L1352.7,320L1352.7,320L1309.1,320L1309.1,320L1265.5,320L1265.5,320L1221.8,320L1221.8,320L1178.2,320L1178.2,320L1134.5,320L1134.5,320L1090.9,320L1090.9,320L1047.3,320L1047.3,320L1003.6,320L1003.6,320L960,320L960,320L916.4,320L916.4,320L872.7,320L872.7,320L829.1,320L829.1,320L785.5,320L785.5,320L741.8,320L741.8,320L698.2,320L698.2,320L654.5,320L654.5,320L610.9,320L610.9,320L567.3,320L567.3,320L523.6,320L523.6,320L480,320L480,320L436.4,320L436.4,320L392.7,320L392.7,320L349.1,320L349.1,320L305.5,320L305.5,320L261.8,320L261.8,320L218.2,320L218.2,320L174.5,320L174.5,320L130.9,320L130.9,320L87.3,320L87.3,320L43.6,320L43.6,320L0,320L0,320Z"></path></svg>